# xmcd CD database file
#
# Track frame offsets:
#	150
#	18012
#	31411
#	50063
#	68883
#	92700
#	109525
#	129552
#	149089
#	168459
#	181957
#	197970
#
# Disc length: 2831 seconds
#
# Revision: 0
# Processed by: cddbd v1.5.2PL0 Copyright (c) Steve Scherf et al.
# Submitted via: CDex 1.70beta2
#
DISCID=ab0b0d0c
DTITLE=Vesa-Matti Loiri - Hyv‰‰ Puuta
DYEAR=2009
DGENRE=Blues
TTITLE0=Miksi m‰ maailmalle laulaisin
TTITLE1=Aapakarhu
TTITLE2=Kaiken n‰hnyt
TTITLE3=Miss‰ kotini on
TTITLE4=Hyv‰‰ puuta
TTITLE5=Vilukukka
TTITLE6=Taivun mutten murru
TTITLE7=Yst‰v‰ni
TTITLE8=Ei tullutkaan ‰‰nettˆmyys
TTITLE9=Hyv‰‰ el‰m‰‰
TTITLE10=Sadan miehen leukaluut
TTITLE11=Uskon
EXTD=YEAR: 2009
EXTT0=
EXTT1=
EXTT2=
EXTT3=
EXTT4=
EXTT5=
EXTT6=
EXTT7=
EXTT8=
EXTT9=
EXTT10=
EXTT11=
PLAYORDER=
